<?xml version="1.0" encoding="UTF-8" standalone="no"?>
<svg
   viewBox="0 0 100 100"
   x="0px"
   y="0px"
   version="1.1"
   id="svg2"
   sodipodi:docname="sploot.svg"
   width="100"
   height="100"
   inkscape:version="1.3.2 (091e20e, 2023-11-25)"
   xmlns:inkscape="http://www.inkscape.org/namespaces/inkscape"
   xmlns:sodipodi="http://sodipodi.sourceforge.net/DTD/sodipodi-0.dtd"
   xmlns="http://www.w3.org/2000/svg"
   xmlns:svg="http://www.w3.org/2000/svg">
  <defs
     id="defs2" />
  <sodipodi:namedview
     id="namedview2"
     pagecolor="#ffffff"
     bordercolor="#000000"
     borderopacity="0.25"
     inkscape:showpageshadow="2"
     inkscape:pageopacity="0.0"
     inkscape:pagecheckerboard="0"
     inkscape:deskcolor="#d1d1d1"
     inkscape:zoom="3.7692155"
     inkscape:cx="50.143061"
     inkscape:cy="62.745153"
     inkscape:window-width="1384"
     inkscape:window-height="812"
     inkscape:window-x="0"
     inkscape:window-y="25"
     inkscape:window-maximized="0"
     inkscape:current-layer="svg2" />
  <circle
     style="display:inline;fill:#b3b3b3;stroke-width:0.865385"
     id="path2"
     cx="49.877754"
     cy="49.347141"
     r="47.755299" />
  <path
     style="display:inline;fill:#deaa87;fill-opacity:1;stroke:#000000;stroke-width:0.432692;stroke-dasharray:none;stroke-opacity:1"
     d="m 95.596757,45.192998 c -0.925961,-2.033653 -2.483654,-3.530769 -4.603846,-4.275 C 88.474642,40.035306 85.774642,40.217037 83.16118,39.983383 81.724642,39.853575 80.253488,39.585306 78.964065,38.901652 77.665988,38.209345 76.63618,37.162229 75.519834,36.227614 71.279449,32.696845 65.126565,31.83146 59.856372,33.094921 c 0,0 -0.01731,-0.01731 -0.01731,-0.02596 -0.735577,-0.848077 -1.479808,-1.575 -2.40577,-2.180769 1.159616,-1.877885 2.094231,-3.894231 2.769231,-5.997116 0.3375,-1.047115 0.605769,-2.111538 0.813462,-3.184615 0.173077,-0.9 0.268269,-1.748077 0.718269,-2.561539 0.216346,-0.389423 -0.216346,-0.839423 -0.614423,-0.605769 -3.167308,1.843269 -6.334616,3.669231 -9.493269,5.529808 -1.670193,0.986538 -3.340385,2.033654 -4.854808,3.253846 -1.038462,-0.346154 -2.310577,-0.08654 -3.331731,0.190385 -0.908654,0.250961 -1.825961,0.605769 -2.639423,1.107692 0.1125,-1.107692 0.138462,-2.224038 0.09519,-3.340385 -0.1125,-2.76923 -0.614423,-5.5125 -0.709615,-8.28173 -0.02596,-0.657693 -0.01731,-1.315385 0.01731,-1.964424 0.04327,-0.726923 0.190384,-1.427884 0.268269,-2.146153 0.07789,-0.770193 -0.155769,-1.471154 -0.796154,-1.9125 -1.090385,-0.761539 -2.552885,-0.458654 -3.452885,0.458653 -0.908653,0.917308 -1.228846,2.224039 -1.479807,3.444231 -0.683654,3.409616 -1.341346,6.879808 -1.263462,10.375962 0.03462,1.557692 0.250962,3.167308 -0.08654,4.716346 -0.138462,0.631731 -0.415385,1.220192 -0.597116,1.843269 -0.173077,0.579808 -0.302884,1.306731 -0.700961,1.791346 -0.302885,0.372116 -0.830769,0.553847 -1.2375,0.770193 -0.614423,0.320192 -1.211539,0.692307 -1.8,1.064423 -1.125,0.735577 -2.198077,1.557692 -3.15,2.509615 -1.886539,1.886539 -3.115385,4.205769 -3.522116,6.845193 -0.268269,1.696153 -0.5625,3.288461 -1.220192,4.889423 -0.424038,1.047115 -0.925961,2.033653 -1.185577,3.141346 -0.527884,2.284615 -0.666346,4.707692 -0.493269,7.035577 0.08654,1.150961 0.242308,2.31923 0.623077,3.409615 0.225,0.649039 0.588461,1.150962 1.038461,1.592308 -1.375961,0.822115 -2.414423,1.973077 -3.245192,3.349038 -0.346154,0.571154 -0.761538,1.159616 -1.0125,1.774039 -0.268269,0.657692 -0.346154,1.453846 -0.276923,2.154807 0.06923,0.735577 0.372115,1.315385 0.960577,1.765385 0.129808,0.09519 0.250961,0.190385 0.372115,0.285577 0.05192,0.06923 0.121154,0.121154 0.207693,0.155769 0.415384,0.311539 0.830769,0.571154 1.393269,0.683654 1.678846,0.3375 3.409615,-0.415385 4.638461,-1.540385 0.804808,-0.735576 1.401923,-1.678846 1.981731,-2.596153 0.597116,-0.94327 1.142308,-1.929808 1.652885,-2.925 0.778846,0.216346 1.557692,0.424038 2.319231,0.640384 0.553846,0.164423 1.116346,0.328846 1.670192,0.493269 -1.375962,0.363462 -2.622116,1.029808 -3.695192,2.076924 -1.488462,1.453846 -3.807693,4.058653 -1.6875,5.9625 0.977884,0.874038 2.327884,0.986538 3.574038,0.865384 1.358654,-0.129808 2.708654,-0.432692 3.998077,-0.891346 1.289423,-0.458654 2.518269,-1.064423 3.660577,-1.808654 0.683654,-0.45 1.332692,-0.934615 2.042308,-1.35 0.9,-0.527884 1.808653,-1.038461 2.665384,-1.626923 0.475962,-0.328846 1.125,-0.718269 1.445193,-1.254808 0.770192,-0.08654 1.53173,-0.268269 2.284615,-0.475961 2.189423,-0.605769 4.335577,-1.427885 6.395192,-2.371154 1.843269,-0.848077 3.470193,-2.033654 5.045193,-3.314423 3.651923,-2.976923 5.607692,-7.494231 6.48173,-12.046154 0.03462,0 0.06923,-0.0087 0.103847,-0.02596 1.955769,-0.943269 3.686538,-2.301923 5.434615,-3.565384 1.678846,-1.211539 3.435577,-2.552885 5.425961,-3.210577 0.05192,-0.01731 0.09519,-0.04327 0.138462,-0.07789 0.597115,0.363462 1.2375,0.683654 1.860577,0.977885 0.865385,0.406731 1.748077,0.813461 2.665385,1.099038 0.813461,0.259616 1.6875,0.363462 2.518269,0.501923 1.038461,0.173077 2.085577,0.328847 3.124038,0.467308 2.050962,0.276923 4.119231,0.519231 6.1875,0.683654 0.752885,0.06058 1.50577,0.1125 2.25,0.121154 0.398077,0 0.839423,0.02596 1.220193,-0.09519 1.921153,-0.640385 1.246153,-3.210577 0.649038,-4.534616 z"
     id="path5" />
  <path
     style="display:inline;fill:#252822;fill-opacity:1;stroke:#000000;stroke-width:0.432692;stroke-dasharray:none;stroke-opacity:1"
     d="m 40.869834,47.763191 c -0.02596,-0.527885 0.190384,-1.038462 0.640384,-1.488462 0.597116,-0.597115 1.549039,-0.995192 2.284616,-0.960577 0.09519,0 0.181731,0.07789 0.207692,0.173077 0.02596,0.1125 0.649039,2.777885 -0.02596,3.911539 -0.320193,0.536538 -0.908654,0.683654 -1.479808,0.683654 -0.726923,0 -1.419231,-0.242308 -1.471154,-0.26827 -0.09519,-0.03462 -0.155769,-0.138461 -0.147115,-0.242307 0,0 0.06923,-0.527885 0,-1.817308 z"
     id="path10" />
  <path
     style="display:inline;fill:none;fill-opacity:1;stroke:#000000;stroke-width:0.259615;stroke-dasharray:none;stroke-opacity:1"
     d="m 48.476565,46.577614 c 1.116346,1.600961 1.652884,3.574038 1.471153,5.521154 -0.09519,1.0125 -0.398076,1.973077 -0.822115,2.899038 -0.389423,0.856731 -0.848077,1.678846 -1.609615,2.25 -0.233654,0.173077 -0.45,-0.216346 -0.225,-0.380769 0.735577,-0.553846 1.168269,-1.445192 1.523077,-2.267308 0.389423,-0.9 0.649038,-1.851923 0.700961,-2.829807 0.09519,-1.765385 -0.415384,-3.513462 -1.427884,-4.958654 -0.164424,-0.233654 0.225,-0.458654 0.389423,-0.225 z"
     id="path13" />
  <path
     style="display:inline;fill:#252822;fill-opacity:1;stroke:none;stroke-width:0.259615;stroke-dasharray:none;stroke-opacity:1"
     d="m 46.26118,56.884345 c -1.644231,2.1375 -4.197115,3.253846 -6.715385,4.024038 -2.570192,0.7875 -5.365384,0.752885 -7.900961,-0.164423 -1.176923,-0.424038 -2.397116,-1.003846 -3.305769,-1.877885 -0.969231,-0.925961 -1.644231,-2.31923 -2.189424,-3.522115 -0.536538,-1.185577 -0.882692,-2.457692 -0.63173,-3.755769 0.268269,-1.375962 1.125,-2.665385 1.748077,-3.902885 0.259615,-0.510577 1.029807,-0.06058 0.770192,0.45 -0.623077,1.228846 -1.549039,2.570192 -1.696154,3.963462 -0.147115,1.410577 0.510577,2.76923 1.168269,3.972115 0.60577,1.107692 1.202885,2.128846 2.301923,2.8125 0.969231,0.605769 2.033654,1.055769 3.141347,1.341346 2.371153,0.614423 4.768269,0.406731 7.061538,-0.398077 2.241346,-0.7875 4.456731,-1.825961 5.815385,-3.850961 1.324038,-1.973077 1.618269,-4.525962 0.510577,-6.672116 -0.259616,-0.510577 0.510577,-0.960577 0.770192,-0.45 1.35,2.613462 0.917308,5.7375 -0.848077,8.039423 z"
     id="path12" />
  <path
     style="display:inline;fill:#252822;fill-opacity:1;stroke:none;stroke-width:0.432692;stroke-dasharray:none;stroke-opacity:1"
     d="m 27.793872,46.404537 c 0.121154,-1.090385 1.280769,-3.288462 1.332693,-3.383654 0.03462,-0.06923 0.121153,-0.09519 0.199038,-0.121154 0.07788,0 0.155769,0.04327 0.199038,0.1125 0.467308,0.839423 -0.216346,4.335577 -0.29423,4.733654 -0.01731,0.103846 -0.1125,0.181731 -0.216346,0.181731 -0.01731,0 -0.02596,0 -0.04327,0 -0.45,-0.08654 -1.280769,-0.519231 -1.168269,-1.514423 z"
     id="path11" />
  <path
     style="display:inline;fill:none;fill-opacity:1;stroke:#000000;stroke-width:0.432692;stroke-dasharray:none;stroke-opacity:1"
     d="m 95.034257,48.611268 c -0.311538,0.346154 -0.588461,0.302884 -1.003846,0.311538 -0.657692,0 -1.315385,-0.03462 -1.964423,-0.07788 -1.877885,-0.129808 -3.747116,-0.3375 -5.616346,-0.579808 -2.059616,-0.259616 -4.1625,-0.501923 -6.1875,-0.986539 -0.934616,-0.225 -1.834616,-0.657692 -2.7,-1.064423 -0.839423,-0.389423 -1.713462,-0.796154 -2.475,-1.324038 -0.328847,-0.225 -0.631731,0.06923 -0.640385,0.380769 -1.895192,0.692308 -3.574038,1.921154 -5.200962,3.089423 -1.635576,1.176923 -3.253846,2.423077 -5.045192,3.375 0.02596,-0.181731 0.06923,-0.363461 0.09519,-0.545192 0.242308,-1.774039 0.398077,-3.556731 0.45,-5.348077 0.05192,-1.661539 0.103847,-3.383654 -0.276923,-5.010577 -0.363461,-1.592308 -1.246153,-3.072115 -2.059615,-4.465385 -0.346154,-0.588461 -0.709615,-1.159615 -1.133654,-1.704807 -0.225,-0.285577 -0.467308,-0.553847 -0.718269,-0.813462 4.396154,-0.934615 9.415385,-0.346154 13.197115,2.154808 2.120193,1.401923 3.677885,3.435577 6.170193,4.257692 2.449038,0.813462 5.071154,0.614423 7.615384,0.856731 2.267308,0.207692 4.673077,0.813461 6.161539,2.665385 0.155769,0.190384 0.294231,0.389423 0.432692,0.597115 0,0 0,0 0,0 -0.06058,0.01731 -0.121154,0.04327 -0.181731,0.06058 -0.129807,0.03462 -0.268269,0.06058 -0.40673,0.08654 -0.03462,0 -0.03462,0 0,0 -0.01731,0 -0.03462,0 -0.05192,0 -0.04327,0 -0.07788,0.0087 -0.121153,0.0087 -0.07789,0 -0.147116,0.0087 -0.225,0.01731 -0.164423,0.0087 -0.328847,0.0087 -0.49327,0.0087 -0.588461,0 -1.176923,-0.05192 -1.765384,-0.09519 -0.242308,-0.01731 -0.45,0.216347 -0.45,0.441347 0,0.250961 0.207692,0.432692 0.45,0.441346 0.623077,0.04327 1.246154,0.09519 1.869231,0.09519 0.614423,0 1.263461,-0.06058 1.825961,-0.320192 0.147115,0.285577 0.276923,0.579807 0.398077,0.882692 -0.718269,0.121154 -1.453846,0.190385 -2.180769,0.207692 -0.778846,0.01731 -1.575,0 -2.327885,-0.225 -0.553846,-0.164423 -0.7875,0.692308 -0.233654,0.856731 0.822116,0.250962 1.713462,0.276923 2.561539,0.259615 0.822115,-0.01731 1.644231,-0.09519 2.457692,-0.242307 0.138462,0.597115 0.190385,1.289423 -0.216346,1.730769 z"
     id="path9" />
  <path
     style="display:inline;fill:none;fill-opacity:1;stroke:#000000;stroke-width:0.346154;stroke-dasharray:none;stroke-opacity:1"
     d="m 58.63618,62.621845 c -1.306731,1.488461 -3.020192,2.760577 -4.681731,3.825 -1.566346,1.003846 -3.400961,1.678846 -5.149038,2.31923 -1.774039,0.649039 -3.686539,1.375962 -5.590385,1.4625 -2.682692,0.121154 -5.451923,-0.389423 -8.030769,-1.08173 -0.406731,-0.1125 -0.813462,-0.233654 -1.220192,-0.346154 -0.0087,0 -0.02596,0 -0.03462,-0.0087 -2.734615,-0.761538 -5.451923,-1.600962 -8.169231,-2.405769 -1.073077,-0.320193 -2.09423,-0.804808 -3.028846,-1.419231 -0.917307,-0.605769 -1.549038,-1.246154 -1.869231,-2.310577 -0.640384,-2.172115 -0.63173,-4.560577 -0.432692,-6.793269 0.08654,-1.021154 0.225,-2.050962 0.475962,-3.046154 0.268269,-1.081731 0.7875,-2.076923 1.202884,-3.106731 0.60577,-1.497115 0.882693,-3.002884 1.125,-4.595192 0.199039,-1.315385 0.553846,-2.578846 1.194231,-3.747116 1.194231,-2.215384 3.132692,-3.920192 5.226923,-5.261538 0.519231,-0.328846 1.047116,-0.657692 1.592308,-0.943269 0.441346,-0.233654 0.908654,-0.432693 1.298077,-0.761539 0.813461,-0.692307 0.943269,-1.938461 1.280769,-2.890384 0.493269,-1.367308 0.675,-2.665385 0.631731,-4.119231 -0.04327,-1.583654 -0.129808,-3.15 -0.01731,-4.742308 0.121154,-1.6875 0.380769,-3.366346 0.683654,-5.036538 0.250962,-1.410577 0.424038,-2.916347 0.934615,-4.257693 0.441347,-1.159615 1.6875,-2.509615 3.028847,-1.704807 0.770192,0.458653 0.424038,1.471153 0.328846,2.241346 -0.320193,2.535577 -0.0087,5.079807 0.268269,7.606731 0.285577,2.613461 0.510577,5.270192 0.147115,7.883653 -0.03462,0.06923 -0.03462,0.129808 -0.02596,0.199039 0,0.04327 -0.0087,0.09519 -0.01731,0.138461 -0.242308,1.540385 -0.683654,3.0375 -1.280769,4.482693 -0.01731,0.05192 -0.02596,0.09519 -0.02596,0.138461 -0.9,0 -1.75673,0.225 -2.648077,0.276923 -0.882692,0.05192 -1.782692,-0.207692 -2.622115,0.181731 -0.830769,0.380769 -1.514423,1.064423 -2.1375,1.704808 -1.592308,1.652884 -2.457692,3.643269 -2.111539,5.953846 0.08654,0.5625 0.94327,0.328846 0.856731,-0.233654 -0.276923,-1.851923 0.432693,-3.522115 1.678846,-4.872115 0.545193,-0.588462 1.133654,-1.211539 1.84327,-1.618269 0.770192,-0.441347 1.583654,-0.173077 2.414423,-0.216347 0.778846,-0.04327 1.531731,-0.250961 2.319231,-0.285577 0.770192,-0.03462 1.549038,0.04327 2.275961,0.320193 1.531731,0.588461 2.518269,2.120192 3.167308,3.556731 0.830769,1.843269 1.298077,3.89423 1.549038,5.884615 0.06923,0.5625 0.960577,0.571154 0.891346,0 -0.250961,-2.042308 -0.709615,-4.084615 -1.514423,-5.979808 -0.675,-1.609615 -1.730769,-3.305769 -3.349038,-4.101923 -0.536539,-0.259615 -1.116346,-0.424038 -1.704808,-0.501923 0.614423,-1.488461 1.029808,-3.028846 1.272116,-4.586538 0.865384,-0.700962 1.964423,-1.133654 3.020192,-1.427885 0.683654,-0.190385 1.488461,-0.380769 2.232692,-0.320192 -0.406731,0.372115 -0.813461,0.752884 -1.185577,1.159615 -1.073077,1.159615 -1.938461,2.475 -2.552884,3.928846 -0.225,0.527885 0.640384,0.761539 0.85673,0.233654 1.401923,-3.340385 4.378847,-5.642308 7.35577,-7.520192 1.549038,-0.977885 3.132692,-1.9125 4.725,-2.838462 -3.9375,3.729808 -7.139423,8.229808 -9.579808,13.05 -0.259615,0.510577 0.510577,0.960577 0.770192,0.45 3.132693,-6.1875 7.5375,-11.899038 13.179808,-16.000961 0.0087,0 0.01731,-0.01731 0.02596,-0.02596 0.320192,-0.181731 0.63173,-0.363461 0.951923,-0.545192 -0.06923,0.259615 -0.129808,0.527884 -0.181731,0.804808 -0.155769,0.960576 -0.363462,1.9125 -0.631731,2.855769 -0.536538,1.929807 -1.280769,3.799038 -2.232692,5.555769 -0.951923,1.756731 -2.102885,3.400962 -3.452885,4.880769 -1.263461,1.384616 -2.708654,2.5875 -4.024038,3.928846 -1.419231,1.445193 -2.674039,3.063462 -3.236539,5.036539 -0.155769,0.553846 0.709616,0.7875 0.856731,0.233654 1.021154,-3.634616 4.474038,-5.806731 6.905769,-8.4375 0.917308,-0.986539 1.739423,-2.050962 2.483654,-3.167308 0.908654,0.597115 1.618269,1.332692 2.345192,2.163462 0.432693,0.493269 0.917308,0.943269 1.315385,1.4625 0.484615,0.623076 0.891346,1.298076 1.272115,1.98173 0.770193,1.384616 1.566347,2.769231 1.825962,4.344231 0.276923,1.644231 0.190385,3.375 0.1125,5.036539 -0.147115,3.210577 -0.519231,6.499038 -1.557692,9.553846 -0.770193,2.275961 -2.025,4.621154 -3.634616,6.438461 z"
     id="path8" />
  <path
     style="display:inline;fill:none;fill-opacity:1;stroke:#000000;stroke-width:0.432692;stroke-dasharray:none;stroke-opacity:1"
     d="m 41.925603,71.54396 c -0.666346,0.45 -1.358654,0.865385 -2.059615,1.272115 -1.39327,0.822116 -2.691346,1.817308 -4.127885,2.561539 -1.090385,0.5625 -2.241346,0.995192 -3.426923,1.298077 -1.047115,0.268269 -2.180769,0.484615 -3.279808,0.45 0.01731,-0.03462 0.02596,-0.06058 0,-0.02596 0.01731,-0.04327 0.03462,-0.07788 0.05192,-0.121154 0.04327,-0.08654 0.09519,-0.173076 0.147116,-0.250961 0.02596,-0.04327 0.06058,-0.08654 0.08654,-0.129808 0,0 0.01731,-0.02596 0.03462,-0.04327 0.103846,-0.121154 0.216346,-0.242308 0.3375,-0.346154 0.02596,-0.02596 0.06058,-0.05192 0.08654,-0.07788 0,0 0,0 0,0 0,0 0.01731,-0.0087 0.02596,-0.01731 0.06058,-0.04327 0.1125,-0.07788 0.173076,-0.121154 0.190385,-0.121154 0.38077,-0.216346 0.588462,-0.302885 0.3375,-0.147115 0.657692,-0.164423 1.038462,-0.173077 0.242307,0 0.45,-0.199038 0.45,-0.441346 0,-0.242307 -0.207693,-0.45 -0.45,-0.441346 -0.320193,0 -0.640385,0.01731 -0.951924,0.09519 -0.18173,0.04327 -0.354807,0.121154 -0.527884,0.199039 -0.216346,0.09519 -0.432692,0.199038 -0.631731,0.328846 -0.657692,0.424039 -1.116346,1.047115 -1.367308,1.774039 -0.380769,-0.103847 -0.761538,-0.285577 -1.064423,-0.527885 0.06058,-0.05192 0.121154,-0.121154 0.147116,-0.207692 0.01731,-0.05192 0.03461,-0.103847 0.06058,-0.15577 0,-0.0087 0.03461,-0.06923 0.03461,-0.06923 0.04327,-0.08654 0.08654,-0.181731 0.138462,-0.259616 0.05192,-0.07788 0.103846,-0.164423 0.155769,-0.242307 0.0087,-0.01731 0.02596,-0.03462 0.03462,-0.05192 0.02596,-0.03462 0.06058,-0.06923 0.08654,-0.103846 0.1125,-0.129807 0.242307,-0.250961 0.372115,-0.363461 0.0087,0 0,0 0.0087,-0.0087 0,0 0,0 0.0087,0 0.03461,-0.02596 0.06923,-0.05192 0.103846,-0.06923 0.06923,-0.04327 0.138461,-0.08654 0.207692,-0.129808 0.06058,-0.03462 0.129808,-0.06923 0.190385,-0.103846 0.04327,-0.01731 0.07788,-0.03462 0.121154,-0.05192 0,0 0,0 0,0 0,0 0,0 0,0 0.129807,-0.05192 0.268269,-0.09519 0.40673,-0.129807 0.06058,-0.01731 0.129808,-0.02596 0.190385,-0.04327 0.02596,0 0.05192,-0.01731 0.07788,-0.0087 0,0 0.0087,0 0.0087,0 0.1125,-0.0087 0.216347,-0.01731 0.328847,0 0.233653,0.01731 0.458653,-0.216346 0.45,-0.441346 -0.0087,-0.250961 -0.199039,-0.432692 -0.45,-0.441346 -0.623077,-0.03462 -1.28077,0.173077 -1.817308,0.493269 -0.649039,0.38077 -1.133654,0.960577 -1.445192,1.635577 -0.07788,-0.242307 -0.103847,-0.51923 -0.02596,-0.822115 0.250962,-0.995192 1.168269,-1.938462 1.851923,-2.674039 1.479808,-1.592307 3.2625,-2.405769 5.425962,-2.570192 0,0 0,0 0,0 1.817307,0.510577 3.643269,0.969231 5.529807,1.220192 1.073077,0.147116 2.163462,0.250962 3.253847,0.250962 -0.225,0.164423 -0.458654,0.311538 -0.623077,0.424038 z"
     id="path7" />
  <path
     style="display:inline;fill:none;fill-opacity:1;stroke:#000000;stroke-width:0.432692;stroke-dasharray:none;stroke-opacity:1"
     d="m 24.453488,71.846845 c -0.614423,0.830769 -1.445193,1.557692 -2.397116,1.973077 0,-0.01731 0,-0.03462 0,-0.04327 0.01731,-0.129807 0.04327,-0.250961 0.06923,-0.372115 0.05192,-0.216346 0.1125,-0.424038 0.181731,-0.631731 0.138461,-0.389423 0.302884,-0.761538 0.432692,-1.150961 0.06923,-0.225 -0.08654,-0.49327 -0.311538,-0.545193 -0.242308,-0.05192 -0.467308,0.07789 -0.545193,0.311539 -0.129807,0.398077 -0.302884,0.7875 -0.441346,1.185577 -0.173077,0.501923 -0.259615,1.029807 -0.320192,1.557692 -0.147116,0.02596 -0.294231,0.05192 -0.441346,0.06923 -0.08654,0 -0.164423,0 -0.242308,0 0.02596,-0.597116 0.08654,-1.185577 0.216346,-1.765385 0.06058,-0.285577 0.138462,-0.571154 0.225,-0.856731 0.03462,-0.1125 0.07788,-0.216346 0.121154,-0.328846 0,-0.0087 0.03461,-0.08654 0.04327,-0.09519 0.01731,-0.04327 0.04327,-0.08654 0.06923,-0.121154 0.285577,-0.501923 -0.484615,-0.943269 -0.770192,-0.45 -0.285577,0.484616 -0.424039,1.073077 -0.545193,1.618269 -0.138461,0.623077 -0.207692,1.263462 -0.242307,1.895193 -0.294231,-0.08654 -0.571154,-0.242308 -0.83077,-0.441346 0,-0.03462 -0.01731,-0.06058 -0.02596,-0.09519 0,-0.03462 0,-0.03462 0,0 0,-0.01731 0,-0.03462 0,-0.04327 0,-0.04327 0,-0.09519 -0.0087,-0.138462 0,-0.173076 0,-0.3375 0.01731,-0.510576 0,-0.01731 0,-0.04327 0,-0.05192 0,-0.03462 0.01731,-0.07788 0.01731,-0.1125 0.01731,-0.08654 0.03462,-0.164423 0.06058,-0.250961 0.04327,-0.155769 0.09519,-0.320192 0.147116,-0.467308 0.0087,-0.03461 0.02596,-0.06923 0.03461,-0.103846 0,-0.01731 0,-0.01731 0.0087,-0.02596 0,0 0,0 0.0087,-0.02596 0.02596,-0.06058 0.05192,-0.121154 0.08654,-0.181731 0.06058,-0.121154 0.121154,-0.233654 0.181731,-0.346154 0.05192,-0.08654 0.103846,-0.164423 0.155769,-0.242307 0,0 0.0087,-0.0087 0.01731,-0.01731 0.01731,-0.01731 0.03462,-0.04327 0.06058,-0.06058 0.190385,-0.155769 0.155769,-0.475961 0,-0.631731 -0.181731,-0.18173 -0.441346,-0.155769 -0.631731,0 -0.155769,0.129808 -0.268269,0.328846 -0.372115,0.501923 -0.164423,0.285577 -0.302885,0.579808 -0.415385,0.891347 -0.129808,0.346153 -0.225,0.718269 -0.268269,1.090384 -0.129808,-0.173077 -0.242308,-0.363461 -0.276923,-0.631731 -0.09519,-0.588461 -0.04327,-1.289423 0.181731,-1.851923 0.199038,-0.510577 0.5625,-1.003846 0.839423,-1.479807 0.822115,-1.401923 1.8,-2.570193 3.236538,-3.375 0.02596,-0.01731 0.04327,-0.04327 0.06923,-0.06058 0.06058,0.04327 0.103846,0.08654 0.164423,0.129807 1.479808,1.038462 3.193269,1.644231 4.932692,2.154808 -0.735577,1.436539 -1.549038,2.847115 -2.500961,4.145192 z"
     id="path6" />
  <path
     style="display:inline;fill:#252822;fill-opacity:1;stroke-width:0.865385"
     d="m 33.488103,53.88146 c 1.116346,0.07789 1.791346,1.324038 1.618269,2.353846 -0.380769,0.242308 -0.770192,0.475962 -1.185577,0.657692 -0.155769,0.06923 -0.320192,0.129808 -0.484615,0.173077 -0.06058,0.01731 -0.1125,0.02596 -0.155769,0.03462 -0.07789,0 -0.08654,0 -0.1125,0 -0.302885,-0.08654 -0.597116,-0.3375 -0.839423,-0.545193 -0.3375,-0.29423 -0.649039,-0.614423 -0.94327,-0.951923 0.147116,-1.021153 1.064423,-1.791346 2.111539,-1.713461 z"
     id="path4"
     inkscape:label="path4" />
  <path
     style="display:inline;fill:#252822;fill-opacity:1;stroke-width:0.865385"
     d="m 30.814065,55.967037 c 0.346153,0.406731 0.726923,0.796154 1.142307,1.142308 0.259616,0.216346 0.553846,0.45 0.882693,0.571153 -0.09519,0.666347 -0.207693,1.315385 -0.207693,1.990385 0,0.173077 0.155769,0.346154 0.3375,0.3375 0.181731,0 0.3375,-0.147115 0.3375,-0.3375 0,-0.328846 0.01731,-0.649038 0.06058,-0.969231 0,-0.01731 0,-0.02596 0,-0.02596 0,0 0,0 0,-0.01731 0,-0.04327 0.0087,-0.07789 0.01731,-0.121154 0.0087,-0.07788 0.02596,-0.155769 0.03462,-0.233654 0.02596,-0.18173 0.05192,-0.363461 0.07789,-0.545192 0,-0.0087 0,-0.02596 0,-0.03462 0.199038,-0.04327 0.398077,-0.1125 0.571154,-0.181731 0.527884,-0.216346 1.021154,-0.510577 1.497115,-0.813462 0.07788,-0.03462 0.147116,-0.09519 0.173077,-0.216346 0.268269,-1.142307 -0.242308,-2.457692 -1.298077,-3.0375 -0.960577,-0.527884 -2.180769,-0.268269 -2.959615,0.467308 -0.484616,0.467308 -0.744231,1.081731 -0.804808,1.748077 -0.0087,0.129808 0.04327,0.216346 0.121154,0.268269 z"
     id="path1" />
</svg>
